<mxfile host="Electron" modified="2023-04-20T11:34:06.285Z" agent="Mozilla/5.0 (Windows NT 10.0; Win64; x64) AppleWebKit/537.36 (KHTML, like Gecko) draw.io/21.1.2 Chrome/106.0.5249.199 Electron/21.4.3 Safari/537.36" etag="yY2xTpBskVQJLkfbofGB" version="21.1.2" type="device">
  <diagram name="第 1 页" id="w9wR-30KvmktxLhURGS1">
    <mxGraphModel dx="1084" dy="974" grid="1" gridSize="10" guides="1" tooltips="1" connect="1" arrows="1" fold="1" page="1" pageScale="1" pageWidth="827" pageHeight="1169" math="0" shadow="0">
      <root>
        <mxCell id="0" />
        <mxCell id="1" parent="0" />
        <mxCell id="uXfd2cWKQLPkUlYsmn5K-33" value="!FNA#F_LIGHT*(Name)&amp;lt;(desc)/(type)/(value)?" style="text;whiteSpace=wrap;html=1;" vertex="1" parent="1">
          <mxGeometry x="1045" y="800" width="260" height="40" as="geometry" />
        </mxCell>
        <mxCell id="uXfd2cWKQLPkUlYsmn5K-2" value="" style="ellipse;whiteSpace=wrap;html=1;fillColor=none;fontSize=15;" vertex="1" parent="1">
          <mxGeometry x="208.5" y="250" width="556" height="401.75" as="geometry" />
        </mxCell>
        <mxCell id="uXfd2cWKQLPkUlYsmn5K-1" value="主控端设备" style="rounded=0;whiteSpace=wrap;html=1;fontSize=15;" vertex="1" parent="1">
          <mxGeometry x="424" y="270" width="120" height="60" as="geometry" />
        </mxCell>
        <mxCell id="uXfd2cWKQLPkUlYsmn5K-5" value="" style="shape=requiredInterface;html=1;verticalLabelPosition=bottom;sketch=0;rotation=90;fontSize=15;" vertex="1" parent="1">
          <mxGeometry x="466" y="278" width="36" height="180" as="geometry" />
        </mxCell>
        <mxCell id="uXfd2cWKQLPkUlYsmn5K-6" value="" style="shape=requiredInterface;html=1;verticalLabelPosition=bottom;sketch=0;rotation=90;fontSize=15;" vertex="1" parent="1">
          <mxGeometry x="459.75" y="304.25" width="53.5" height="245" as="geometry" />
        </mxCell>
        <mxCell id="uXfd2cWKQLPkUlYsmn5K-7" value="UDP广播报文" style="text;html=1;align=center;verticalAlign=middle;resizable=0;points=[];autosize=1;strokeColor=none;fillColor=none;fontSize=15;" vertex="1" parent="1">
          <mxGeometry x="424" y="400" width="120" height="30" as="geometry" />
        </mxCell>
        <mxCell id="uXfd2cWKQLPkUlYsmn5K-8" value="" style="shape=requiredInterface;html=1;verticalLabelPosition=bottom;sketch=0;rotation=90;fontSize=15;" vertex="1" parent="1">
          <mxGeometry x="450.75" y="311.25" width="74" height="325" as="geometry" />
        </mxCell>
        <mxCell id="uXfd2cWKQLPkUlYsmn5K-9" value="被控端设备1" style="whiteSpace=wrap;html=1;fontSize=15;" vertex="1" parent="1">
          <mxGeometry x="300" y="520" width="100" height="60.75" as="geometry" />
        </mxCell>
        <mxCell id="uXfd2cWKQLPkUlYsmn5K-10" value="被控端设备2" style="whiteSpace=wrap;html=1;fontSize=15;" vertex="1" parent="1">
          <mxGeometry x="430" y="520" width="107.75" height="60.75" as="geometry" />
        </mxCell>
        <mxCell id="uXfd2cWKQLPkUlYsmn5K-11" value="被控端设备3" style="whiteSpace=wrap;html=1;fontSize=15;" vertex="1" parent="1">
          <mxGeometry x="570" y="520" width="100" height="60.75" as="geometry" />
        </mxCell>
        <mxCell id="uXfd2cWKQLPkUlYsmn5K-12" value="!DC#IP*(SysIP)?&amp;nbsp;" style="text;html=1;align=center;verticalAlign=middle;resizable=0;points=[];autosize=1;strokeColor=none;fillColor=none;fontSize=15;" vertex="1" parent="1">
          <mxGeometry x="417.75" y="420" width="140" height="30" as="geometry" />
        </mxCell>
        <mxCell id="uXfd2cWKQLPkUlYsmn5K-15" value="&lt;font style=&quot;font-size: 15px;&quot;&gt;LAN&lt;/font&gt;" style="text;html=1;align=center;verticalAlign=middle;resizable=0;points=[];autosize=1;strokeColor=none;fillColor=none;fontSize=15;" vertex="1" parent="1">
          <mxGeometry x="285" y="325" width="50" height="30" as="geometry" />
        </mxCell>
        <mxCell id="uXfd2cWKQLPkUlYsmn5K-16" value="主控端设备" style="rounded=0;whiteSpace=wrap;html=1;fontSize=15;" vertex="1" parent="1">
          <mxGeometry x="240" y="800" width="120" height="60" as="geometry" />
        </mxCell>
        <mxCell id="uXfd2cWKQLPkUlYsmn5K-20" style="rounded=0;orthogonalLoop=1;jettySize=auto;html=1;entryX=0;entryY=0.5;entryDx=0;entryDy=0;fontSize=15;" edge="1" parent="1" source="uXfd2cWKQLPkUlYsmn5K-18" target="uXfd2cWKQLPkUlYsmn5K-16">
          <mxGeometry relative="1" as="geometry">
            <mxPoint x="260" y="820" as="targetPoint" />
          </mxGeometry>
        </mxCell>
        <mxCell id="uXfd2cWKQLPkUlYsmn5K-18" value="被控端设备1" style="whiteSpace=wrap;html=1;fontSize=15;" vertex="1" parent="1">
          <mxGeometry x="20" y="960" width="140" height="40" as="geometry" />
        </mxCell>
        <mxCell id="uXfd2cWKQLPkUlYsmn5K-21" value="已收到主控端广播包" style="text;html=1;align=center;verticalAlign=middle;resizable=0;points=[];autosize=1;strokeColor=none;fillColor=none;" vertex="1" parent="1">
          <mxGeometry x="20" y="1000" width="130" height="30" as="geometry" />
        </mxCell>
        <mxCell id="uXfd2cWKQLPkUlYsmn5K-23" style="rounded=0;orthogonalLoop=1;jettySize=auto;html=1;entryX=1;entryY=0.5;entryDx=0;entryDy=0;" edge="1" parent="1" source="uXfd2cWKQLPkUlYsmn5K-22" target="uXfd2cWKQLPkUlYsmn5K-16">
          <mxGeometry relative="1" as="geometry" />
        </mxCell>
        <mxCell id="uXfd2cWKQLPkUlYsmn5K-22" value="被控端设备2" style="whiteSpace=wrap;html=1;fontSize=15;" vertex="1" parent="1">
          <mxGeometry x="440" y="960" width="140" height="40" as="geometry" />
        </mxCell>
        <mxCell id="uXfd2cWKQLPkUlYsmn5K-24" value="已收到主控端广播包" style="text;html=1;align=center;verticalAlign=middle;resizable=0;points=[];autosize=1;strokeColor=none;fillColor=none;" vertex="1" parent="1">
          <mxGeometry x="445" y="1000" width="130" height="30" as="geometry" />
        </mxCell>
        <mxCell id="uXfd2cWKQLPkUlYsmn5K-25" value="!DCA#IP*(8266IP)#ID*(deviceID)" style="text;whiteSpace=wrap;html=1;rotation=-45;" vertex="1" parent="1">
          <mxGeometry x="75" y="860" width="210" height="30" as="geometry" />
        </mxCell>
        <mxCell id="uXfd2cWKQLPkUlYsmn5K-26" value="!DCA#IP*(8266IP)#ID*(deviceID)" style="text;whiteSpace=wrap;html=1;rotation=45;" vertex="1" parent="1">
          <mxGeometry x="347.75" y="890" width="210" height="30" as="geometry" />
        </mxCell>
        <mxCell id="uXfd2cWKQLPkUlYsmn5K-27" value="主控端设备" style="rounded=0;whiteSpace=wrap;html=1;fontSize=15;" vertex="1" parent="1">
          <mxGeometry x="880" y="750" width="120" height="60" as="geometry" />
        </mxCell>
        <mxCell id="uXfd2cWKQLPkUlYsmn5K-28" value="被控端设备" style="rounded=0;whiteSpace=wrap;html=1;fontSize=15;" vertex="1" parent="1">
          <mxGeometry x="1330" y="750" width="120" height="60" as="geometry" />
        </mxCell>
        <mxCell id="uXfd2cWKQLPkUlYsmn5K-29" value="TCP通信" style="html=1;shadow=0;dashed=0;align=center;verticalAlign=middle;shape=mxgraph.arrows2.twoWayArrow;dy=0.65;dx=22;" vertex="1" parent="1">
          <mxGeometry x="1000" y="750" width="330" height="60" as="geometry" />
        </mxCell>
        <mxCell id="uXfd2cWKQLPkUlYsmn5K-30" value="!FN#FNAME*(deviceNAME)?" style="text;whiteSpace=wrap;html=1;" vertex="1" parent="1">
          <mxGeometry x="1080" y="720" width="190" height="40" as="geometry" />
        </mxCell>
        <mxCell id="uXfd2cWKQLPkUlYsmn5K-32" value="" style="endArrow=classic;html=1;rounded=0;" edge="1" parent="1">
          <mxGeometry width="50" height="50" relative="1" as="geometry">
            <mxPoint x="1070" y="750" as="sourcePoint" />
            <mxPoint x="1250" y="750" as="targetPoint" />
          </mxGeometry>
        </mxCell>
        <mxCell id="uXfd2cWKQLPkUlYsmn5K-34" value="" style="endArrow=classic;html=1;rounded=0;exitX=1;exitY=0.75;exitDx=0;exitDy=0;" edge="1" parent="1" source="uXfd2cWKQLPkUlYsmn5K-33">
          <mxGeometry width="50" height="50" relative="1" as="geometry">
            <mxPoint x="1285" y="830" as="sourcePoint" />
            <mxPoint x="1045" y="830" as="targetPoint" />
          </mxGeometry>
        </mxCell>
        <mxCell id="uXfd2cWKQLPkUlYsmn5K-37" value="" style="swimlane;startSize=0;" vertex="1" parent="1">
          <mxGeometry x="990" y="1110" width="200" height="240" as="geometry" />
        </mxCell>
        <mxCell id="uXfd2cWKQLPkUlYsmn5K-38" value="主控端系统程序" style="text;html=1;align=center;verticalAlign=middle;resizable=0;points=[];autosize=1;strokeColor=none;fillColor=none;" vertex="1" parent="uXfd2cWKQLPkUlYsmn5K-37">
          <mxGeometry width="110" height="30" as="geometry" />
        </mxCell>
        <mxCell id="uXfd2cWKQLPkUlYsmn5K-43" value="后端数据逻辑处理" style="rounded=0;whiteSpace=wrap;html=1;" vertex="1" parent="uXfd2cWKQLPkUlYsmn5K-37">
          <mxGeometry x="40" y="30" width="120" height="60" as="geometry" />
        </mxCell>
        <mxCell id="uXfd2cWKQLPkUlYsmn5K-41" value="图形用户界面" style="rounded=0;whiteSpace=wrap;html=1;" vertex="1" parent="uXfd2cWKQLPkUlYsmn5K-37">
          <mxGeometry x="40" y="140" width="120" height="60" as="geometry" />
        </mxCell>
        <mxCell id="uXfd2cWKQLPkUlYsmn5K-50" style="edgeStyle=orthogonalEdgeStyle;rounded=0;orthogonalLoop=1;jettySize=auto;html=1;" edge="1" parent="uXfd2cWKQLPkUlYsmn5K-37" source="uXfd2cWKQLPkUlYsmn5K-41" target="uXfd2cWKQLPkUlYsmn5K-43">
          <mxGeometry relative="1" as="geometry" />
        </mxCell>
        <mxCell id="uXfd2cWKQLPkUlYsmn5K-44" value="" style="swimlane;startSize=0;" vertex="1" parent="1">
          <mxGeometry x="1440" y="1110" width="200" height="240" as="geometry" />
        </mxCell>
        <mxCell id="uXfd2cWKQLPkUlYsmn5K-45" value="被控端程序" style="text;html=1;align=center;verticalAlign=middle;resizable=0;points=[];autosize=1;strokeColor=none;fillColor=none;" vertex="1" parent="uXfd2cWKQLPkUlYsmn5K-44">
          <mxGeometry x="15" width="80" height="30" as="geometry" />
        </mxCell>
        <mxCell id="uXfd2cWKQLPkUlYsmn5K-56" style="edgeStyle=none;shape=connector;rounded=0;orthogonalLoop=1;jettySize=auto;html=1;entryX=0.5;entryY=0;entryDx=0;entryDy=0;labelBackgroundColor=default;strokeColor=default;fontFamily=Helvetica;fontSize=11;fontColor=default;endArrow=classic;" edge="1" parent="uXfd2cWKQLPkUlYsmn5K-44" source="uXfd2cWKQLPkUlYsmn5K-46" target="uXfd2cWKQLPkUlYsmn5K-48">
          <mxGeometry relative="1" as="geometry" />
        </mxCell>
        <mxCell id="uXfd2cWKQLPkUlYsmn5K-46" value="侦听请求" style="rounded=0;whiteSpace=wrap;html=1;" vertex="1" parent="uXfd2cWKQLPkUlYsmn5K-44">
          <mxGeometry x="40" y="40" width="120" height="50" as="geometry" />
        </mxCell>
        <mxCell id="uXfd2cWKQLPkUlYsmn5K-57" style="edgeStyle=none;shape=connector;rounded=0;orthogonalLoop=1;jettySize=auto;html=1;entryX=0.5;entryY=0;entryDx=0;entryDy=0;labelBackgroundColor=default;strokeColor=default;fontFamily=Helvetica;fontSize=11;fontColor=default;endArrow=classic;" edge="1" parent="uXfd2cWKQLPkUlYsmn5K-44" source="uXfd2cWKQLPkUlYsmn5K-48" target="uXfd2cWKQLPkUlYsmn5K-49">
          <mxGeometry relative="1" as="geometry" />
        </mxCell>
        <mxCell id="uXfd2cWKQLPkUlYsmn5K-64" style="edgeStyle=none;shape=connector;rounded=0;orthogonalLoop=1;jettySize=auto;html=1;labelBackgroundColor=default;strokeColor=default;fontFamily=Helvetica;fontSize=11;fontColor=default;endArrow=classic;entryX=0.5;entryY=0;entryDx=0;entryDy=0;" edge="1" parent="uXfd2cWKQLPkUlYsmn5K-44" source="uXfd2cWKQLPkUlYsmn5K-48" target="uXfd2cWKQLPkUlYsmn5K-63">
          <mxGeometry relative="1" as="geometry" />
        </mxCell>
        <mxCell id="uXfd2cWKQLPkUlYsmn5K-48" value="解析命令" style="rounded=0;whiteSpace=wrap;html=1;" vertex="1" parent="uXfd2cWKQLPkUlYsmn5K-44">
          <mxGeometry x="40" y="120" width="120" height="50" as="geometry" />
        </mxCell>
        <mxCell id="uXfd2cWKQLPkUlYsmn5K-49" value="控制内部功能" style="rounded=0;whiteSpace=wrap;html=1;" vertex="1" parent="uXfd2cWKQLPkUlYsmn5K-44">
          <mxGeometry x="110" y="190" width="80" height="40" as="geometry" />
        </mxCell>
        <mxCell id="uXfd2cWKQLPkUlYsmn5K-63" value="控制外部功能" style="rounded=0;whiteSpace=wrap;html=1;" vertex="1" parent="uXfd2cWKQLPkUlYsmn5K-44">
          <mxGeometry x="15" y="190" width="80" height="40" as="geometry" />
        </mxCell>
        <mxCell id="uXfd2cWKQLPkUlYsmn5K-52" style="rounded=0;orthogonalLoop=1;jettySize=auto;html=1;entryX=1;entryY=0.5;entryDx=0;entryDy=0;" edge="1" parent="1" source="uXfd2cWKQLPkUlYsmn5K-51" target="uXfd2cWKQLPkUlYsmn5K-41">
          <mxGeometry relative="1" as="geometry">
            <mxPoint x="1030" y="1280" as="targetPoint" />
          </mxGeometry>
        </mxCell>
        <mxCell id="uXfd2cWKQLPkUlYsmn5K-51" value="用户" style="shape=umlActor;verticalLabelPosition=bottom;verticalAlign=top;html=1;outlineConnect=0;" vertex="1" parent="1">
          <mxGeometry x="1300" y="1250" width="30" height="60" as="geometry" />
        </mxCell>
        <mxCell id="uXfd2cWKQLPkUlYsmn5K-53" value="操作" style="text;html=1;align=center;verticalAlign=middle;resizable=0;points=[];autosize=1;strokeColor=none;fillColor=none;fontSize=11;fontFamily=Helvetica;fontColor=default;" vertex="1" parent="1">
          <mxGeometry x="1200" y="1250" width="50" height="30" as="geometry" />
        </mxCell>
        <mxCell id="uXfd2cWKQLPkUlYsmn5K-59" value="TCP通信" style="html=1;shadow=0;dashed=0;align=center;verticalAlign=middle;shape=mxgraph.arrows2.twoWayArrow;dy=0.65;dx=22;rotation=0;" vertex="1" parent="1">
          <mxGeometry x="1150" y="1140" width="330" height="60" as="geometry" />
        </mxCell>
        <mxCell id="uXfd2cWKQLPkUlYsmn5K-66" value="!SET#F_LIGHT*(Name)/(type)/(value)" style="text;whiteSpace=wrap;html=1;fontSize=11;fontFamily=Helvetica;fontColor=default;" vertex="1" parent="1">
          <mxGeometry x="1220" y="1120" width="220" height="40" as="geometry" />
        </mxCell>
        <mxCell id="uXfd2cWKQLPkUlYsmn5K-67" value="" style="endArrow=classic;html=1;rounded=0;labelBackgroundColor=default;strokeColor=default;fontFamily=Helvetica;fontSize=11;fontColor=default;shape=connector;" edge="1" parent="1">
          <mxGeometry width="50" height="50" relative="1" as="geometry">
            <mxPoint x="1210" y="1150" as="sourcePoint" />
            <mxPoint x="1420" y="1150" as="targetPoint" />
          </mxGeometry>
        </mxCell>
        <mxCell id="uXfd2cWKQLPkUlYsmn5K-68" value="!SETA#OK*0?" style="text;whiteSpace=wrap;html=1;fontSize=11;fontFamily=Helvetica;fontColor=default;" vertex="1" parent="1">
          <mxGeometry x="1280" y="1180" width="100" height="20" as="geometry" />
        </mxCell>
        <mxCell id="uXfd2cWKQLPkUlYsmn5K-69" value="" style="endArrow=classic;html=1;rounded=0;labelBackgroundColor=default;strokeColor=default;fontFamily=Helvetica;fontSize=11;fontColor=default;shape=connector;" edge="1" parent="1">
          <mxGeometry width="50" height="50" relative="1" as="geometry">
            <mxPoint x="1410" y="1210" as="sourcePoint" />
            <mxPoint x="1220" y="1210" as="targetPoint" />
          </mxGeometry>
        </mxCell>
      </root>
    </mxGraphModel>
  </diagram>
</mxfile>
